<svg width="255" height="52" viewBox="0 0 255 52" fill="none" xmlns="http://www.w3.org/2000/svg">
<path fill-rule="evenodd" clip-rule="evenodd" d="M24.1864 51.9357C38.5082 52.9372 50.934 42.1369 51.9356 27.8137C52.9372 13.4906 42.1353 1.06598 27.8136 0.064506C13.4918 -0.936968 1.06596 9.86339 0.064388 24.1865C-0.937184 38.5097 9.86466 50.9343 24.1864 51.9357ZM23.9649 31.8462C24.1581 31.6689 24.5821 31.3805 24.8379 31.2183C17.6887 27.8143 12.7632 22.4036 10.8655 16.1024C9.83632 17.7475 9.04014 19.5572 8.52144 21.5029C11.8606 26.4953 17.2441 30.2209 23.9649 31.8462ZM20.5927 35.3835C18.3584 35.8907 17.294 36.2038 14.0488 35.9769C14.3032 36.2914 14.9191 37.0217 15.3034 37.303C17.2243 37.2014 18.6331 36.9317 20.2161 36.0566L20.5927 35.3835ZM34.0026 12.3361C34.974 14.0998 36.443 19.237 35.2979 23.3011C33.8583 28.3832 31.1213 30.1314 28.385 31.8691C26.2714 33.2156 24.157 34.5729 22.6585 37.457C21.1006 40.4322 22.2381 43.9246 26.2229 45.6128C25.108 41.1894 29.1112 38.6607 31.1373 37.8061C31.4346 37.6785 32.0143 37.4844 32.4563 37.3366C35.0368 36.4778 39.4459 35.0104 42.0727 30.5368C46.0431 23.7663 39.141 15.4618 34.0026 12.3361ZM12.7272 13.6465C14.2117 20.3851 18.5748 26.3924 25.7367 30.677C26.2457 30.3468 26.986 30.0142 27.5464 29.7625L27.6644 29.7095L27.7739 29.6641C21.7183 24.3017 18.2068 16.6052 19.3235 8.69177C16.788 9.83928 14.5533 11.5485 12.7272 13.6465ZM23.0522 32.5878C17.2154 31.5437 12.1916 28.7548 8.67358 24.7992C8.97867 26.5163 9.56098 28.221 10.2557 29.8382C13.983 32.0172 22.5189 33.0698 22.5189 33.0698C22.7418 32.8381 23.0522 32.5878 23.0522 32.5878ZM21.7844 33.8452C17.9271 33.7756 14.8288 33.3589 11.2239 31.9515L12.0484 33.3645L12.9743 34.5858C17.4765 35.2499 21.2634 34.4554 21.2634 34.4554C21.4924 34.1407 21.7844 33.8452 21.7844 33.8452Z" fill="#0128D2"/>
<path fill-rule="evenodd" clip-rule="evenodd" d="M103.7 42.9761C99.7612 47.198 93.11 50.5 86.4587 50.5V50.4882C72.8142 50.4882 62 39.8981 62 25.9941C62 12.0901 73.0383 1.5 86.7889 1.5C93.3223 1.5 99.4075 4.69591 103.24 8.68195L98.9593 16.43C90.0556 4.23598 70.3377 10.274 70.3377 25.9941C70.3377 35.1101 77.7791 42.6223 87.1309 42.0562C92.9921 41.7142 97.155 38.306 99.3013 35.1101L103.7 42.9761ZM150.195 50.5H140.22L129.093 30.684L118.427 30.8053V50.5H108.913V1.5H118.305L118.427 22.2504L127.006 22.3596L138.837 1.5H148.8L135.585 24.7016L150.195 50.5ZM209.266 26.0608C209.266 11.2562 199.62 2.43669 182.528 1.5H173.806C156.714 2.43669 147.068 11.2562 147.068 26.0608C147.068 40.8654 156.714 49.5633 173.806 50.5H182.528C199.729 49.7944 209.266 40.8654 209.266 26.0608ZM182.65 9.72344C194.036 10.6601 200.313 16.0735 200.313 25.9392C200.313 35.8049 194.145 41.4494 182.65 42.3982V9.72344ZM156.374 26.0608C156.374 16.0735 162.298 10.6723 173.928 9.72344V42.3982C162.772 41.3399 156.374 36.0482 156.374 26.0608ZM241.951 7.45068C242.968 5.4995 243.999 3.52347 245.065 1.5L245.078 1.51216H254.844L233.694 40.5151C229.389 48.3838 224.512 50.5 218.93 50.5L214.624 42.6313C215.549 42.8624 216.485 42.984 217.409 42.984C221.593 42.984 223.916 39.8097 226.008 36.6355L207.181 1.5H216.826L230.885 27.8182C235.039 20.6988 238.417 14.2246 241.951 7.45068Z" fill="#0128D2"/>
</svg>
